<svg width="20" height="18" viewBox="0 0 20 18" fill="none" xmlns="http://www.w3.org/2000/svg">
<path d="M6.1 10.34L8.93 7.50996L2.74 1.32996C2.26 0.849957 1.43 0.979957 1.13 1.59996C0.420002 3.08996 0.680002 4.91996 1.91 6.15996L6.1 10.34ZM12.88 8.52996C14.41 9.23996 16.56 8.73996 18.15 7.14996C20.06 5.23996 20.43 2.49996 18.96 1.02996C17.5 -0.430043 14.76 -0.0700425 12.84 1.83996C11.25 3.42996 10.75 5.57996 11.46 7.10996L2.41 16.16C2.02 16.55 2.02 17.18 2.41 17.57C2.8 17.96 3.43 17.96 3.82 17.57L10 11.41L16.18 17.59C16.57 17.98 17.2 17.98 17.59 17.59C17.98 17.2 17.98 16.57 17.59 16.18L11.41 9.99996L12.88 8.52996Z" fill="black"/>
</svg>
